<svg width="28" height="28" viewBox="0 0 28 28" fill="none" xmlns="http://www.w3.org/2000/svg">
<path d="M24.8407 15.1667H3.15934C1.38601 15.1667 2.89801 17.7777 3.69717 18.1779L6.45167 19.5557C6.72701 19.6945 6.86467 19.7634 6.97901 19.8637C8.00334 20.769 8.19001 22.3639 9.48501 23.0569C10.0007 23.3334 10.6108 23.3334 11.8323 23.3334H16.1677C17.3892 23.3334 17.9993 23.3334 18.515 23.0569C19.81 22.3639 19.9967 20.769 21.021 19.8637C21.1353 19.7634 21.273 19.6945 21.5483 19.5557L24.3017 18.1779C25.102 17.7777 26.6128 15.1667 24.8407 15.1667Z" stroke="black" stroke-width="1.5" stroke-linecap="round" stroke-linejoin="round"/>
<path d="M17.5 15.1667C17.5 13.3102 16.7625 11.5297 15.4497 10.2169C14.137 8.90419 12.3565 8.16669 10.5 8.16669C8.64348 8.16669 6.86301 8.90419 5.55025 10.2169C4.2375 11.5297 3.5 13.3102 3.5 15.1667" stroke="black" stroke-width="1.5" stroke-linecap="round" stroke-linejoin="round"/>
<path d="M24.5 15.1667C24.5 11.9455 21.9042 9.33336 18.7017 9.33336C17.6237 9.33336 16.6145 9.62969 15.75 10.1454M8.16667 14.259C8.16667 12.8275 9.21084 11.6667 10.5 11.6667C11.7892 11.6667 12.8333 12.8275 12.8333 14.259V16.3334M10.5 7.64869C11.0028 5.58836 13.216 4.29569 15.4432 4.76119C17.6703 5.22786 19.0668 7.27419 18.564 9.33336" stroke="black" stroke-width="1.5" stroke-linecap="round" stroke-linejoin="round"/>
</svg>
