<svg width="28" height="28" viewBox="0 0 28 28" fill="none" xmlns="http://www.w3.org/2000/svg">
<path d="M8.16667 24.5H19.8333M22.75 14L25.6667 7M18.9583 3.5C19.2733 3.61667 19.8917 4.11833 19.8333 5.08667C19.7633 6.055 18.7483 6.48667 18.6667 7.44333C18.6083 8.35333 19.0633 8.89 19.5183 9.33333M13.125 3.5C13.44 3.61667 14.0583 4.11833 13.9883 5.08667C13.93 6.055 12.9033 6.48667 12.845 7.44333C12.775 8.35333 13.23 8.89 13.685 9.33333M7.29167 3.5C7.60667 3.61667 8.225 4.11833 8.16667 5.08667C8.09667 6.055 7.08167 6.48667 7 7.44333C6.94167 8.35333 7.39667 8.89 7.86333 9.33333M14 24.5C16.7848 24.5 19.4555 23.3938 21.4246 21.4246C23.3938 19.4555 24.5 16.7848 24.5 14H3.5C3.5 16.7848 4.60625 19.4555 6.57538 21.4246C8.54451 23.3938 11.2152 24.5 14 24.5Z" stroke="black" stroke-width="2" stroke-linecap="round" stroke-linejoin="round"/>
</svg>
