<svg width="15" height="17" viewBox="0 0 15 17" fill="none" xmlns="http://www.w3.org/2000/svg">
<path d="M11.725 5.95083V4.25059C11.725 1.87026 9.74077 0 7.21538 0C4.69 0 2.70577 1.87026 2.70577 4.25059V5.95083C1.1725 5.95083 0 7.05598 0 8.50118V14.452C0 15.8972 1.1725 17.0024 2.70577 17.0024H11.725C13.2583 17.0024 14.4308 15.8972 14.4308 14.452V8.50118C14.4308 7.05598 13.2583 5.95083 11.725 5.95083ZM4.50962 4.25059C4.50962 2.80539 5.68212 1.70024 7.21538 1.70024C8.74865 1.70024 9.92115 2.80539 9.92115 4.25059V5.95083H4.50962V4.25059ZM8.11731 12.7518C8.11731 13.2618 7.75654 13.6019 7.21538 13.6019C6.67423 13.6019 6.31346 13.2618 6.31346 12.7518V10.2014C6.31346 9.69135 6.67423 9.3513 7.21538 9.3513C7.75654 9.3513 8.11731 9.69135 8.11731 10.2014V12.7518Z" fill="#9A9A9A"/>
</svg>
