<svg width="28" height="28" viewBox="0 0 28 28" fill="none" xmlns="http://www.w3.org/2000/svg">
<path d="M4.66667 13.2055C4.66667 16.8245 5.18467 19.411 7.25901 22.5132C8.83517 24.6097 10.941 25.1347 13.1857 23.6658C13.6827 23.3532 14.3173 23.3532 14.8155 23.6658C17.059 25.1358 19.1648 24.6097 20.741 22.5132C22.8153 19.4098 23.3333 16.8245 23.3333 13.2067C23.3333 10.1022 21.0117 7 18.1487 7C16.6705 7 15.337 7.8085 14.392 8.68C14.2847 8.77739 14.1449 8.83135 14 8.83135C13.8551 8.83135 13.7153 8.77739 13.608 8.68C12.6642 7.80967 11.3295 7 9.85134 7C6.98834 7 4.66667 10.1033 4.66667 13.2055Z" stroke="black" stroke-width="2" stroke-linecap="round" stroke-linejoin="round"/>
<path d="M8.16667 14C8.16667 12.285 8.69634 11.27 9.91667 10.5M14 8.16667C14 6.76667 15.0115 3.5 17.5 3.5" stroke="black" stroke-width="2" stroke-linecap="round" stroke-linejoin="round"/>
</svg>
