<svg width="28" height="28" viewBox="0 0 28 28" fill="none" xmlns="http://www.w3.org/2000/svg">
<path d="M19.25 8.09375C19.013 8.09375 18.8079 8.00716 18.6348 7.83398C18.4616 7.66081 18.375 7.45573 18.375 7.21875C18.375 6.75391 18.4616 6.30729 18.6348 5.87891C18.8079 5.45052 19.0632 5.07227 19.4004 4.74414L20.4805 3.65039C20.8268 3.30404 21 2.88932 21 2.40625C21 2.16927 21.0866 1.96419 21.2598 1.79102C21.4329 1.61784 21.638 1.53125 21.875 1.53125C22.112 1.53125 22.3171 1.61784 22.4902 1.79102C22.6634 1.96419 22.75 2.16927 22.75 2.40625C22.75 2.87109 22.6634 3.31771 22.4902 3.74609C22.3171 4.17448 22.0618 4.55273 21.7246 4.88086L20.6445 5.97461C20.2982 6.32096 20.125 6.73568 20.125 7.21875C20.125 7.45573 20.0384 7.66081 19.8652 7.83398C19.6921 8.00716 19.487 8.09375 19.25 8.09375ZM14 8.09375C13.763 8.09375 13.5579 8.00716 13.3848 7.83398C13.2116 7.66081 13.125 7.45573 13.125 7.21875C13.125 6.75391 13.2116 6.30729 13.3848 5.87891C13.5579 5.45052 13.8132 5.07227 14.1504 4.74414L15.2305 3.65039C15.5768 3.30404 15.75 2.88932 15.75 2.40625C15.75 2.16927 15.8366 1.96419 16.0098 1.79102C16.1829 1.61784 16.388 1.53125 16.625 1.53125C16.862 1.53125 17.0671 1.61784 17.2402 1.79102C17.4134 1.96419 17.5 2.16927 17.5 2.40625C17.5 2.87109 17.4134 3.31771 17.2402 3.74609C17.0671 4.17448 16.8118 4.55273 16.4746 4.88086L15.3945 5.97461C15.0482 6.32096 14.875 6.73568 14.875 7.21875C14.875 7.45573 14.7884 7.66081 14.6152 7.83398C14.4421 8.00716 14.237 8.09375 14 8.09375ZM25.375 10.5C25.7396 10.5 26.0814 10.5684 26.4004 10.7051C26.7194 10.8418 26.9974 11.0286 27.2344 11.2656C27.4714 11.5026 27.6582 11.7806 27.7949 12.0996C27.9316 12.4186 28 12.7604 28 13.125V18.375C28 18.7396 27.9316 19.0814 27.7949 19.4004C27.6582 19.7194 27.4714 19.9974 27.2344 20.2344C26.9974 20.4714 26.7194 20.6582 26.4004 20.7949C26.0814 20.9316 25.7396 21 25.375 21H24.5957C24.5775 21.0638 24.5638 21.123 24.5547 21.1777C24.5456 21.2324 24.5273 21.2871 24.5 21.3418V21.875C24.5 22.4766 24.3861 23.0417 24.1582 23.5703C23.9303 24.099 23.6159 24.5638 23.2148 24.9648C22.8138 25.3659 22.349 25.6803 21.8203 25.9082C21.2917 26.1361 20.7266 26.25 20.125 26.25H14.875C14.1641 26.25 13.5078 26.0905 12.9062 25.7715C12.3047 25.4525 11.8034 25.0286 11.4023 24.5H4.56641C3.96484 24.5 3.39974 24.3861 2.87109 24.1582C2.34245 23.9303 1.8776 23.6204 1.47656 23.2285C1.07552 22.8366 0.761068 22.3717 0.533203 21.834C0.305339 21.2962 0.191406 20.7266 0.191406 20.125V19.25H3.69141C3.69141 18.5299 3.82812 17.8509 4.10156 17.2129C4.375 16.5749 4.75326 16.0189 5.23633 15.5449C5.7194 15.071 6.27539 14.6927 6.9043 14.4102C7.5332 14.1276 8.21224 13.9909 8.94141 14C9.21484 14 9.47917 14.0228 9.73438 14.0684C9.98958 14.1139 10.2448 14.1777 10.5 14.2598V8.75H24.5V10.5H25.375ZM8.94141 15.75C8.45833 15.75 8.00716 15.8411 7.58789 16.0234C7.16862 16.2057 6.79492 16.4564 6.4668 16.7754C6.13867 17.0944 5.88802 17.4635 5.71484 17.8828C5.54167 18.3021 5.45052 18.7578 5.44141 19.25H10.5V16.1328C10.263 16.0143 10.0169 15.9232 9.76172 15.8594C9.50651 15.7956 9.23307 15.7591 8.94141 15.75ZM4.56641 22.75H10.5957C10.5319 22.4857 10.5 22.194 10.5 21.875V21H2.0918C2.18294 21.2552 2.31055 21.4876 2.47461 21.6973C2.63867 21.9069 2.82552 22.0938 3.03516 22.2578C3.24479 22.4219 3.48177 22.5404 3.74609 22.6133C4.01042 22.6862 4.28385 22.7318 4.56641 22.75ZM10.8965 23.666V23.6797L10.9102 23.707V23.6934L10.8965 23.666ZM22.75 21.875V10.5H12.25V21.875C12.25 22.2396 12.3184 22.5814 12.4551 22.9004C12.5918 23.2194 12.7786 23.4974 13.0156 23.7344C13.2526 23.9714 13.5306 24.1582 13.8496 24.2949C14.1686 24.4316 14.5104 24.5 14.875 24.5H20.125C20.4896 24.5 20.8314 24.4316 21.1504 24.2949C21.4694 24.1582 21.7474 23.9714 21.9844 23.7344C22.2214 23.4974 22.4082 23.2194 22.5449 22.9004C22.6816 22.5814 22.75 22.2396 22.75 21.875ZM26.25 18.375V13.125C26.25 12.888 26.1634 12.6829 25.9902 12.5098C25.8171 12.3366 25.612 12.25 25.375 12.25H24.5V19.25H25.375C25.612 19.25 25.8171 19.1634 25.9902 18.9902C26.1634 18.8171 26.25 18.612 26.25 18.375Z" fill="black"/>
</svg>
